<svg xmlns="http://www.w3.org/2000/svg" version="1.1" xmlns:xlink="http://www.w3.org/1999/xlink" xmlns:svgjs="http://svgjs.com/svgjs" width="1440" height="1000" preserveAspectRatio="none" viewBox="0 0 1440 1000"><g mask="url(&quot;#SvgjsMask1217&quot;)" fill="none"><rect width="1440" height="1000" x="0" y="0" fill="#0e2a47"></rect><path d="M779.12 412.42 a43.18 43.18 0 1 0 86.36 0 a43.18 43.18 0 1 0 -86.36 0z" stroke="#037b0b"></path><path d="M680.42 288.44L720.81 288.44L720.81 328.83L680.42 328.83z" fill="#d3b714"></path><path d="M1288.97 72.67 a47.89 47.89 0 1 0 95.78 0 a47.89 47.89 0 1 0 -95.78 0z" fill="#037b0b"></path><path d="M969.6 63.07L1015.18 63.07L1015.18 108.65L969.6 108.65z" fill="#e73635"></path><path d="M956.85 618.92a25.07 25.07 0 1 0-38 32.71z" fill="#037b0b"></path><path d="M1139.65 784.13 a20.29 20.29 0 1 0 40.58 0 a20.29 20.29 0 1 0 -40.58 0z" fill="#037b0b"></path><path d="M538.16 82.22a77.93 77.93 0 1 0 144.24 59.05z" fill="#037b0b"></path><path d="M421.4 605.92L504.71 605.92L504.71 624.92L421.4 624.92z" stroke="#e73635"></path><path d="M846.73 877.99L915.68 877.99L915.68 947.73L846.73 947.73z" fill="#e73635"></path><path d="M-3.79 806.03a58.8 58.8 0 1 0 116.44-16.44z" stroke="#d3b714"></path><path d="M886.02 186.89L949.81 186.89L949.81 250.68L886.02 250.68z" fill="#037b0b"></path><path d="M6.04 610.92L93.99 610.92L93.99 658.41L6.04 658.41z" stroke="#037b0b"></path><path d="M-51.58 585.14 a69.66 69.66 0 1 0 139.32 0 a69.66 69.66 0 1 0 -139.32 0z" fill="#e73635"></path><path d="M-8.5 144.74 a35.32 35.32 0 1 0 70.64 0 a35.32 35.32 0 1 0 -70.64 0z" fill="#d3b714"></path><path d="M1257.37 148.39L1312.69 148.39L1312.69 203.71L1257.37 203.71z" fill="#d3b714"></path><path d="M371.11 371.61L416.08 371.61L416.08 416.58L371.11 416.58z" fill="#e73635"></path><path d="M75.61 559.11L112.99 559.11L112.99 643.51L75.61 643.51z" fill="#d3b714"></path><path d="M899.06 594.82L920.03 594.82L920.03 615.79L899.06 615.79z" fill="#037b0b"></path></g><defs><mask id="SvgjsMask1217"><rect width="1440" height="1000" fill="#ffffff"></rect></mask></defs></svg>